<svg width="245" height="51" viewBox="0 0 245 51" fill="none" xmlns="http://www.w3.org/2000/svg">
<path d="M44.0441 26.5761C44.1264 24.2059 43.8841 20.1314 41.9509 16.5153C41.0738 14.8745 39.718 13.4292 38.1444 12.4245C36.9382 11.6544 35.604 11.1431 34.2594 11.0011C34.2578 11.001 34.2565 11.0021 34.2564 11.0037C34.2563 11.0052 34.2549 11.0064 34.2533 11.0062C32.5596 10.8206 30.848 11.2198 29.3535 12.4245C24.9063 16.0094 26.5762 22.6407 30.3298 25.6137C30.3315 25.615 30.3336 25.6158 30.3358 25.616C30.3379 25.6161 30.3397 25.6167 30.3414 25.618C30.6747 25.8717 31.8811 26.804 33.1036 27.9193C33.1084 27.9237 33.1162 27.9206 33.1166 27.914C33.1171 27.9075 33.1248 27.9044 33.1296 27.9088C33.8812 28.5939 34.6398 29.3488 35.2059 30.0581C35.9451 30.9842 36.5112 32.7118 36.3792 34.2353C36.2289 35.9691 35.1743 37.4384 32.4414 37.1611C32.4399 37.161 32.4385 37.162 32.4384 37.1635C32.4383 37.165 32.437 37.1661 32.4355 37.166C32.2133 37.1444 31.9799 37.1111 31.7349 37.0655C25.8652 35.9715 24.6603 28.9537 24.3445 26.2724C24.0756 23.9891 24.2532 22.5228 24.3473 21.7467C24.5627 19.9691 25.4108 17.7224 26.1025 16.102C26.4109 15.3797 26.0318 15.1302 25.5934 15.781C23.6797 18.6216 22.5379 22.4433 22.4491 25.0009C22.3669 27.371 22.6092 31.4455 24.5423 35.0617C25.4194 36.7024 26.7752 38.1477 28.3488 39.1524C29.5551 39.9226 30.8892 40.4338 32.2338 40.5758C32.2354 40.576 32.2367 40.5748 32.2369 40.5733C32.237 40.5717 32.2383 40.5705 32.2399 40.5707C33.9336 40.7563 35.6452 40.3572 37.1397 39.1524C41.5869 35.5676 39.9171 28.9362 36.1634 25.9633C36.1617 25.9619 36.1596 25.9611 36.1574 25.961C36.1553 25.9608 36.1535 25.9602 36.1518 25.9589C35.8186 25.7052 34.6121 24.7729 33.3897 23.6577C33.3849 23.6533 33.3771 23.6564 33.3766 23.6629C33.3762 23.6694 33.3684 23.6726 33.3636 23.6682C32.612 22.983 31.8535 22.2282 31.2874 21.5189C30.4976 20.5294 29.9053 18.6249 30.1511 17.0321C30.3972 15.4375 31.4832 14.1552 34.0519 14.4158C34.0533 14.416 34.0547 14.4149 34.0548 14.4134C34.0549 14.4119 34.0562 14.4108 34.0577 14.411C34.2799 14.4326 34.5134 14.4658 34.7584 14.5115C40.628 15.6054 41.8329 22.6232 42.1487 25.3046C42.4177 27.5878 42.24 29.0541 42.146 29.8303L42.1459 29.8304L42.1458 29.8313C42.0312 31.4812 41.1376 33.806 40.4064 35.4826C40.0924 36.2024 40.4614 36.4467 40.8998 35.796C42.8135 32.9554 43.9553 29.1336 44.0441 26.5761Z" fill="#54CD85"/>
<path d="M44.0441 26.5763C44.1264 24.2062 43.8841 20.1317 41.9509 16.5155C41.0738 14.8747 39.718 13.4294 38.1444 12.4247C35.2866 10.6001 30.7858 12.9196 30.1511 17.0323C30.3972 15.4377 31.4832 14.1554 34.0519 14.4161C34.0533 14.4162 34.0547 14.4151 34.0548 14.4136C34.0549 14.4122 34.0562 14.411 34.0577 14.4112C34.2799 14.4328 34.5134 14.4661 34.7584 14.5117C40.628 15.6057 41.8329 22.6235 42.1487 25.3048C42.4177 27.588 42.24 29.0544 42.146 29.8305L42.1459 29.8306L42.1458 29.8316C42.0312 31.4814 41.1376 33.8062 40.4064 35.4828C40.0924 36.2027 40.4614 36.447 40.8998 35.7962C42.8135 32.9556 43.9553 29.1339 44.0441 26.5763Z" fill="#038E7A"/>
<path d="M32.4355 37.1662C32.2133 37.1446 31.9799 37.1113 31.7349 37.0657C25.8652 35.9717 24.6603 28.9539 24.3445 26.2726C24.0756 23.9894 24.2532 22.523 24.3473 21.7469C24.5627 19.9693 25.4108 17.7226 26.1025 16.1023C26.4109 15.3799 26.0318 15.1305 25.5934 15.7812C23.6797 18.6218 22.5379 22.4435 22.4491 25.0011C22.3669 27.3712 22.6092 31.4457 24.5423 35.0619C25.4194 36.7027 26.7752 38.148 28.3488 39.1527C30.8033 40.7198 36.0031 38.5744 36.3792 34.2355C36.2289 35.9693 35.1743 37.4387 32.4414 37.1613C32.4399 37.1612 32.4385 37.1623 32.4384 37.1638C32.4383 37.1652 32.437 37.1663 32.4355 37.1662Z" fill="#038E7A"/>
<path d="M62.548 20.6091C62.4826 20.7181 62.4099 20.8017 62.3299 20.8598C62.2573 20.9107 62.1664 20.9361 62.0574 20.9361C61.9339 20.9361 61.7885 20.8743 61.6214 20.7508C61.4542 20.6272 61.2435 20.4928 60.9891 20.3474C60.742 20.1948 60.4404 20.0567 60.0843 19.9332C59.7355 19.8096 59.3103 19.7479 58.8089 19.7479C58.3365 19.7479 57.9186 19.8133 57.5552 19.9441C57.1991 20.0676 56.8975 20.2384 56.6504 20.4565C56.4106 20.6745 56.2289 20.9325 56.1054 21.2304C55.9818 21.5211 55.9201 21.8373 55.9201 22.1788C55.9201 22.6149 56.0254 22.9783 56.2362 23.269C56.4542 23.5524 56.7376 23.7958 57.0865 23.9993C57.4426 24.2028 57.8423 24.3809 58.2856 24.5335C58.7362 24.6788 59.194 24.8315 59.6592 24.9913C60.1315 25.1512 60.5894 25.3329 61.0327 25.5364C61.4833 25.7326 61.883 25.9833 62.2318 26.2886C62.5879 26.5938 62.8714 26.9681 63.0821 27.4114C63.3001 27.8547 63.4092 28.3998 63.4092 29.0466C63.4092 29.7297 63.2929 30.3729 63.0603 30.9761C62.8278 31.572 62.4862 32.0916 62.0356 32.5349C61.5923 32.9783 61.0436 33.3271 60.3895 33.5815C59.7427 33.8358 59.0051 33.963 58.1766 33.963C57.1592 33.963 56.2362 33.7813 55.4077 33.4179C54.5792 33.0473 53.8706 32.5495 53.282 31.9245L53.8924 30.9216C53.9506 30.8416 54.0196 30.7762 54.0996 30.7253C54.1868 30.6672 54.2813 30.6381 54.383 30.6381C54.4775 30.6381 54.5828 30.6781 54.6991 30.7581C54.8227 30.8307 54.9608 30.9252 55.1134 31.0415C55.266 31.1578 55.4404 31.2849 55.6366 31.423C55.8328 31.5611 56.0545 31.6883 56.3016 31.8046C56.556 31.9208 56.843 32.019 57.1628 32.0989C57.4826 32.1716 57.8423 32.2079 58.242 32.2079C58.7435 32.2079 59.1904 32.1389 59.5828 32.0008C59.9753 31.8627 60.306 31.6701 60.5749 31.423C60.851 31.1687 61.0618 30.8671 61.2071 30.5182C61.3525 30.1694 61.4251 29.7806 61.4251 29.3518C61.4251 28.8794 61.3161 28.4942 61.0981 28.1963C60.8874 27.891 60.6076 27.6367 60.2587 27.4332C59.9099 27.2297 59.5102 27.0589 59.0596 26.9208C58.609 26.7755 58.1512 26.6301 57.686 26.4848C57.2209 26.3322 56.7631 26.1578 56.3125 25.9615C55.8619 25.7653 55.4622 25.511 55.1134 25.1985C54.7645 24.886 54.4811 24.4971 54.2631 24.032C54.0523 23.5596 53.9469 22.9783 53.9469 22.2878C53.9469 21.7355 54.0523 21.2014 54.2631 20.6854C54.4811 20.1694 54.7936 19.7115 55.2006 19.3118C55.6148 18.9121 56.1199 18.5924 56.7158 18.3525C57.319 18.1127 58.0094 17.9928 58.7871 17.9928C59.6592 17.9928 60.4513 18.1309 61.1635 18.407C61.883 18.6832 62.5153 19.0829 63.0603 19.6062L62.548 20.6091ZM73.2647 27.0626C73.2647 26.612 73.1993 26.2014 73.0684 25.8307C72.9449 25.4528 72.7596 25.1294 72.5125 24.8605C72.2727 24.5844 71.9783 24.3736 71.6295 24.2283C71.2806 24.0756 70.8846 23.9993 70.4413 23.9993C69.511 23.9993 68.7734 24.2719 68.2283 24.8169C67.6905 25.3547 67.3562 26.1033 67.2254 27.0626H73.2647ZM74.8344 32.2406C74.5946 32.5313 74.3075 32.7857 73.9732 33.0037C73.6389 33.2144 73.2792 33.3889 72.894 33.5269C72.5161 33.665 72.1237 33.7668 71.7167 33.8322C71.3097 33.9049 70.9064 33.9412 70.5067 33.9412C69.7436 33.9412 69.0386 33.814 68.3918 33.5596C67.7523 33.298 67.1963 32.9201 66.724 32.4259C66.2588 31.9245 65.8955 31.3067 65.6338 30.5727C65.3722 29.8387 65.2414 28.9957 65.2414 28.0437C65.2414 27.2733 65.3577 26.5538 65.5902 25.8852C65.8301 25.2166 66.1716 24.6389 66.615 24.1519C67.0583 23.6578 67.5997 23.2726 68.2392 22.9964C68.8788 22.713 69.5982 22.5713 70.3977 22.5713C71.059 22.5713 71.6695 22.6839 72.2291 22.9092C72.7959 23.1272 73.2828 23.447 73.6898 23.8685C74.1041 24.2828 74.4275 24.7987 74.66 25.4165C74.8926 26.0269 75.0088 26.7246 75.0088 27.5095C75.0088 27.8147 74.9761 28.0182 74.9107 28.12C74.8453 28.2217 74.7218 28.2726 74.5401 28.2726H67.16C67.1818 28.9703 67.2763 29.5771 67.4434 30.0931C67.6179 30.6091 67.8577 31.0415 68.1629 31.3903C68.4681 31.7319 68.8315 31.9899 69.253 32.1643C69.6745 32.3315 70.1469 32.415 70.6702 32.415C71.1571 32.415 71.575 32.3605 71.9238 32.2515C72.2799 32.1352 72.5852 32.0117 72.8395 31.8809C73.0939 31.7501 73.3046 31.6301 73.4718 31.5211C73.6462 31.4049 73.7952 31.3467 73.9187 31.3467C74.0786 31.3467 74.2022 31.4085 74.2894 31.532L74.8344 32.2406ZM84.7833 27.0626C84.7833 26.612 84.7179 26.2014 84.5871 25.8307C84.4635 25.4528 84.2782 25.1294 84.0311 24.8605C83.7913 24.5844 83.4969 24.3736 83.1481 24.2283C82.7993 24.0756 82.4032 23.9993 81.9599 23.9993C81.0296 23.9993 80.292 24.2719 79.7469 24.8169C79.2091 25.3547 78.8748 26.1033 78.744 27.0626H84.7833ZM86.353 32.2406C86.1132 32.5313 85.8262 32.7857 85.4918 33.0037C85.1575 33.2144 84.7978 33.3889 84.4126 33.5269C84.0347 33.665 83.6423 33.7668 83.2353 33.8322C82.8283 33.9049 82.425 33.9412 82.0253 33.9412C81.2622 33.9412 80.5573 33.814 79.9105 33.5596C79.2709 33.298 78.715 32.9201 78.2426 32.4259C77.7775 31.9245 77.4141 31.3067 77.1525 30.5727C76.8908 29.8387 76.76 28.9957 76.76 28.0437C76.76 27.2733 76.8763 26.5538 77.1089 25.8852C77.3487 25.2166 77.6902 24.6389 78.1336 24.1519C78.5769 23.6578 79.1183 23.2726 79.7578 22.9964C80.3974 22.713 81.1168 22.5713 81.9163 22.5713C82.5776 22.5713 83.1881 22.6839 83.7477 22.9092C84.3145 23.1272 84.8014 23.447 85.2084 23.8685C85.6227 24.2828 85.9461 24.7987 86.1786 25.4165C86.4112 26.0269 86.5275 26.7246 86.5275 27.5095C86.5275 27.8147 86.4948 28.0182 86.4293 28.12C86.3639 28.2217 86.2404 28.2726 86.0587 28.2726H78.6786C78.7004 28.9703 78.7949 29.5771 78.9621 30.0931C79.1365 30.6091 79.3763 31.0415 79.6815 31.3903C79.9868 31.7319 80.3501 31.9899 80.7716 32.1643C81.1932 32.3315 81.6655 32.415 82.1888 32.415C82.6757 32.415 83.0936 32.3605 83.4424 32.2515C83.7985 32.1352 84.1038 32.0117 84.3581 31.8809C84.6125 31.7501 84.8232 31.6301 84.9904 31.5211C85.1648 31.4049 85.3138 31.3467 85.4373 31.3467C85.5972 31.3467 85.7208 31.4085 85.808 31.532L86.353 32.2406ZM96.1057 25.3729C95.7423 24.886 95.3499 24.548 94.9283 24.3591C94.5068 24.1628 94.0344 24.0647 93.5112 24.0647C92.4865 24.0647 91.698 24.4317 91.1456 25.1658C90.5933 25.8998 90.3171 26.9463 90.3171 28.3053C90.3171 29.0248 90.3789 29.6425 90.5025 30.1585C90.626 30.6672 90.8077 31.0887 91.0475 31.423C91.2874 31.7501 91.5817 31.9899 91.9305 32.1425C92.2794 32.2951 92.6754 32.3714 93.1187 32.3714C93.7583 32.3714 94.3142 32.2261 94.7866 31.9354C95.2663 31.6447 95.706 31.2341 96.1057 30.7035V25.3729ZM98.0461 17.7312V33.7886H96.8905C96.6144 33.7886 96.44 33.6541 96.3673 33.3852L96.1929 32.0444C95.7205 32.6112 95.1827 33.0691 94.5795 33.4179C93.9763 33.7668 93.2786 33.9412 92.4865 33.9412C91.8542 33.9412 91.2801 33.8213 90.7641 33.5815C90.2481 33.3344 89.8084 32.9746 89.4451 32.5022C89.0817 32.0299 88.8019 31.4412 88.6057 30.7362C88.4094 30.0313 88.3113 29.221 88.3113 28.3053C88.3113 27.4913 88.4203 26.7355 88.6384 26.0378C88.8564 25.3329 89.1689 24.7224 89.5759 24.2065C89.9828 23.6905 90.4807 23.2871 91.0693 22.9964C91.6653 22.6985 92.3339 22.5495 93.0751 22.5495C93.751 22.5495 94.3288 22.6658 94.8084 22.8983C95.2953 23.1236 95.7278 23.4397 96.1057 23.8467V17.7312H98.0461ZM119.803 18.1672V33.7886H117.688V26.681H109.262V33.7886H107.147V18.1672H109.262V25.1331H117.688V18.1672H119.803ZM132.611 22.7457L126.452 37.048C126.387 37.1934 126.303 37.3097 126.201 37.3969C126.107 37.4841 125.958 37.5277 125.754 37.5277H124.315L126.332 33.1454L121.775 22.7457H123.454C123.621 22.7457 123.752 22.7893 123.847 22.8765C123.948 22.9565 124.017 23.0473 124.054 23.149L127.008 30.104C127.124 30.4092 127.222 30.729 127.302 31.0633C127.404 30.7217 127.513 30.3983 127.629 30.0931L130.496 23.149C130.54 23.0328 130.613 22.9383 130.714 22.8656C130.823 22.7857 130.943 22.7457 131.074 22.7457H132.611ZM136.277 31.1287C136.633 31.6083 137.022 31.9463 137.443 32.1425C137.865 32.3387 138.337 32.4368 138.86 32.4368C139.892 32.4368 140.684 32.0698 141.237 31.3358C141.789 30.6018 142.065 29.5553 142.065 28.1963C142.065 27.4768 142 26.8591 141.869 26.3431C141.745 25.8271 141.564 25.4056 141.324 25.0785C141.084 24.7442 140.79 24.5008 140.441 24.3482C140.092 24.1956 139.696 24.1192 139.253 24.1192C138.62 24.1192 138.064 24.2646 137.585 24.5553C137.112 24.846 136.676 25.2566 136.277 25.7871V31.1287ZM136.179 24.4572C136.644 23.883 137.181 23.4216 137.792 23.0727C138.402 22.7239 139.1 22.5495 139.885 22.5495C140.524 22.5495 141.102 22.673 141.618 22.9201C142.134 23.1599 142.574 23.5197 142.937 23.9993C143.301 24.4717 143.58 25.0604 143.777 25.7653C143.973 26.4703 144.071 27.2806 144.071 28.1963C144.071 29.0102 143.962 29.7697 143.744 30.4746C143.526 31.1723 143.21 31.7791 142.796 32.2951C142.389 32.8038 141.887 33.2072 141.291 33.5051C140.702 33.7958 140.038 33.9412 139.296 33.9412C138.62 33.9412 138.039 33.8285 137.552 33.6033C137.072 33.3707 136.647 33.0509 136.277 32.644V37.5277H134.325V22.7457H135.492C135.768 22.7457 135.939 22.8801 136.004 23.149L136.179 24.4572ZM153.938 27.0626C153.938 26.612 153.872 26.2014 153.741 25.8307C153.618 25.4528 153.432 25.1294 153.185 24.8605C152.946 24.5844 152.651 24.3736 152.302 24.2283C151.954 24.0756 151.557 23.9993 151.114 23.9993C150.184 23.9993 149.446 24.2719 148.901 24.8169C148.363 25.3547 148.029 26.1033 147.898 27.0626H153.938ZM155.507 32.2406C155.267 32.5313 154.98 32.7857 154.646 33.0037C154.312 33.2144 153.952 33.3889 153.567 33.5269C153.189 33.665 152.797 33.7668 152.39 33.8322C151.983 33.9049 151.579 33.9412 151.18 33.9412C150.416 33.9412 149.712 33.814 149.065 33.5596C148.425 33.298 147.869 32.9201 147.397 32.4259C146.932 31.9245 146.568 31.3067 146.307 30.5727C146.045 29.8387 145.914 28.9957 145.914 28.0437C145.914 27.2733 146.031 26.5538 146.263 25.8852C146.503 25.2166 146.845 24.6389 147.288 24.1519C147.731 23.6578 148.273 23.2726 148.912 22.9964C149.552 22.713 150.271 22.5713 151.071 22.5713C151.732 22.5713 152.342 22.6839 152.902 22.9092C153.469 23.1272 153.956 23.447 154.363 23.8685C154.777 24.2828 155.1 24.7987 155.333 25.4165C155.565 26.0269 155.682 26.7246 155.682 27.5095C155.682 27.8147 155.649 28.0182 155.584 28.12C155.518 28.2217 155.395 28.2726 155.213 28.2726H147.833C147.855 28.9703 147.949 29.5771 148.116 30.0931C148.291 30.6091 148.531 31.0415 148.836 31.3903C149.141 31.7319 149.504 31.9899 149.926 32.1643C150.347 32.3315 150.82 32.415 151.343 32.415C151.83 32.415 152.248 32.3605 152.597 32.2515C152.953 32.1352 153.258 32.0117 153.512 31.8809C153.767 31.7501 153.977 31.6301 154.145 31.5211C154.319 31.4049 154.468 31.3467 154.592 31.3467C154.751 31.3467 154.875 31.4085 154.962 31.532L155.507 32.2406ZM159.907 24.9586C160.256 24.2028 160.685 23.6142 161.194 23.1926C161.703 22.7639 162.324 22.5495 163.058 22.5495C163.29 22.5495 163.512 22.5749 163.723 22.6258C163.941 22.6767 164.133 22.7566 164.301 22.8656L164.159 24.3155C164.115 24.4971 164.006 24.588 163.832 24.588C163.73 24.588 163.581 24.5662 163.385 24.5226C163.189 24.479 162.967 24.4572 162.72 24.4572C162.371 24.4572 162.059 24.508 161.782 24.6098C161.514 24.7115 161.27 24.8642 161.052 25.0676C160.841 25.2639 160.649 25.511 160.474 25.8089C160.307 26.0996 160.155 26.4339 160.016 26.8118V33.7886H158.065V22.7457H159.177C159.388 22.7457 159.533 22.7857 159.613 22.8656C159.693 22.9455 159.748 23.0836 159.777 23.2799L159.907 24.9586ZM166.007 33.7886V22.7457H167.173C167.449 22.7457 167.62 22.8801 167.686 23.149L167.827 24.2828C168.234 23.7813 168.692 23.3707 169.201 23.0509C169.71 22.7312 170.298 22.5713 170.967 22.5713C171.708 22.5713 172.308 22.7784 172.766 23.1926C173.231 23.6069 173.565 24.1665 173.768 24.8714C173.928 24.4717 174.132 24.1265 174.379 23.8358C174.633 23.5451 174.917 23.3053 175.229 23.1163C175.542 22.9274 175.872 22.7893 176.221 22.7021C176.577 22.6149 176.937 22.5713 177.3 22.5713C177.882 22.5713 178.398 22.6658 178.848 22.8547C179.306 23.0364 179.691 23.3053 180.004 23.6614C180.324 24.0175 180.567 24.4572 180.734 24.9804C180.901 25.4964 180.985 26.0887 180.985 26.7573V33.7886H179.034V26.7573C179.034 25.8925 178.845 25.2384 178.467 24.7951C178.089 24.3445 177.544 24.1192 176.832 24.1192C176.512 24.1192 176.207 24.1774 175.916 24.2937C175.633 24.4027 175.382 24.5662 175.164 24.7842C174.946 25.0022 174.771 25.2784 174.641 25.6127C174.517 25.9397 174.455 26.3213 174.455 26.7573V33.7886H172.504V26.7573C172.504 25.8707 172.326 25.2094 171.97 24.7733C171.614 24.3373 171.094 24.1192 170.411 24.1192C169.931 24.1192 169.488 24.2501 169.081 24.5117C168.674 24.766 168.3 25.1149 167.958 25.5582V33.7886H166.007ZM191.325 27.0626C191.325 26.612 191.26 26.2014 191.129 25.8307C191.005 25.4528 190.82 25.1294 190.573 24.8605C190.333 24.5844 190.039 24.3736 189.69 24.2283C189.341 24.0756 188.945 23.9993 188.502 23.9993C187.571 23.9993 186.834 24.2719 186.289 24.8169C185.751 25.3547 185.417 26.1033 185.286 27.0626H191.325ZM192.895 32.2406C192.655 32.5313 192.368 32.7857 192.034 33.0037C191.699 33.2144 191.34 33.3889 190.954 33.5269C190.577 33.665 190.184 33.7668 189.777 33.8322C189.37 33.9049 188.967 33.9412 188.567 33.9412C187.804 33.9412 187.099 33.814 186.452 33.5596C185.813 33.298 185.257 32.9201 184.784 32.4259C184.319 31.9245 183.956 31.3067 183.694 30.5727C183.433 29.8387 183.302 28.9957 183.302 28.0437C183.302 27.2733 183.418 26.5538 183.651 25.8852C183.891 25.2166 184.232 24.6389 184.675 24.1519C185.119 23.6578 185.66 23.2726 186.3 22.9964C186.939 22.713 187.659 22.5713 188.458 22.5713C189.119 22.5713 189.73 22.6839 190.289 22.9092C190.856 23.1272 191.343 23.447 191.75 23.8685C192.164 24.2828 192.488 24.7987 192.72 25.4165C192.953 26.0269 193.069 26.7246 193.069 27.5095C193.069 27.8147 193.037 28.0182 192.971 28.12C192.906 28.2217 192.782 28.2726 192.601 28.2726H185.22C185.242 28.9703 185.337 29.5771 185.504 30.0931C185.678 30.6091 185.918 31.0415 186.223 31.3903C186.529 31.7319 186.892 31.9899 187.313 32.1643C187.735 32.3315 188.207 32.415 188.731 32.415C189.218 32.415 189.635 32.3605 189.984 32.2515C190.34 32.1352 190.646 32.0117 190.9 31.8809C191.154 31.7501 191.365 31.6301 191.532 31.5211C191.707 31.4049 191.856 31.3467 191.979 31.3467C192.139 31.3467 192.263 31.4085 192.35 31.532L192.895 32.2406ZM202.647 25.3729C202.284 24.886 201.892 24.548 201.47 24.3591C201.049 24.1628 200.576 24.0647 200.053 24.0647C199.028 24.0647 198.24 24.4317 197.687 25.1658C197.135 25.8998 196.859 26.9463 196.859 28.3053C196.859 29.0248 196.921 29.6425 197.044 30.1585C197.168 30.6672 197.35 31.0887 197.589 31.423C197.829 31.7501 198.124 31.9899 198.472 32.1425C198.821 32.2951 199.217 32.3714 199.661 32.3714C200.3 32.3714 200.856 32.2261 201.328 31.9354C201.808 31.6447 202.248 31.2341 202.647 30.7035V25.3729ZM204.588 17.7312V33.7886H203.432C203.156 33.7886 202.982 33.6541 202.909 33.3852L202.735 32.0444C202.262 32.6112 201.725 33.0691 201.121 33.4179C200.518 33.7668 199.82 33.9412 199.028 33.9412C198.396 33.9412 197.822 33.8213 197.306 33.5815C196.79 33.3344 196.35 32.9746 195.987 32.5022C195.624 32.0299 195.344 31.4412 195.147 30.7362C194.951 30.0313 194.853 29.221 194.853 28.3053C194.853 27.4913 194.962 26.7355 195.18 26.0378C195.398 25.3329 195.711 24.7224 196.118 24.2065C196.525 23.6905 197.022 23.2871 197.611 22.9964C198.207 22.6985 198.876 22.5495 199.617 22.5495C200.293 22.5495 200.871 22.6658 201.35 22.8983C201.837 23.1236 202.27 23.4397 202.647 23.8467V17.7312H204.588ZM209.702 22.7457V33.7886H207.762V22.7457H209.702ZM210.116 19.2791C210.116 19.4681 210.076 19.6461 209.996 19.8133C209.924 19.9732 209.822 20.1185 209.691 20.2493C209.568 20.3729 209.419 20.471 209.244 20.5437C209.077 20.6163 208.899 20.6527 208.71 20.6527C208.521 20.6527 208.343 20.6163 208.176 20.5437C208.016 20.471 207.874 20.3729 207.751 20.2493C207.627 20.1185 207.529 19.9732 207.456 19.8133C207.384 19.6461 207.347 19.4681 207.347 19.2791C207.347 19.0902 207.384 18.9121 207.456 18.745C207.529 18.5705 207.627 18.4216 207.751 18.298C207.874 18.1672 208.016 18.0655 208.176 17.9928C208.343 17.9201 208.521 17.8838 208.71 17.8838C208.899 17.8838 209.077 17.9201 209.244 17.9928C209.419 18.0655 209.568 18.1672 209.691 18.298C209.822 18.4216 209.924 18.5705 209.996 18.745C210.076 18.9121 210.116 19.0902 210.116 19.2791ZM218.875 28.8176C217.981 28.8467 217.218 28.9194 216.586 29.0357C215.961 29.1447 215.448 29.29 215.049 29.4717C214.656 29.6534 214.369 29.8678 214.188 30.1149C214.013 30.362 213.926 30.6381 213.926 30.9434C213.926 31.2341 213.973 31.4848 214.068 31.6956C214.162 31.9063 214.289 32.0807 214.449 32.2188C214.616 32.3496 214.809 32.4477 215.027 32.5131C215.252 32.5713 215.492 32.6003 215.746 32.6003C216.088 32.6003 216.401 32.5676 216.684 32.5022C216.967 32.4296 217.233 32.3278 217.48 32.197C217.734 32.0662 217.974 31.9099 218.199 31.7283C218.432 31.5466 218.657 31.3394 218.875 31.1069V28.8176ZM212.607 24.3046C213.217 23.7159 213.875 23.2762 214.58 22.9855C215.285 22.6948 216.066 22.5495 216.924 22.5495C217.541 22.5495 218.09 22.6512 218.57 22.8547C219.049 23.0582 219.453 23.3416 219.78 23.705C220.107 24.0684 220.354 24.5081 220.521 25.024C220.688 25.54 220.772 26.1069 220.772 26.7246V33.7886H219.911C219.722 33.7886 219.576 33.7595 219.475 33.7014C219.373 33.636 219.293 33.5124 219.235 33.3307L219.017 32.2842C218.726 32.5531 218.443 32.7929 218.166 33.0037C217.89 33.2072 217.6 33.3816 217.294 33.5269C216.989 33.665 216.662 33.7704 216.313 33.8431C215.972 33.923 215.59 33.963 215.169 33.963C214.74 33.963 214.337 33.9049 213.959 33.7886C213.581 33.665 213.25 33.4833 212.967 33.2435C212.69 33.0037 212.469 32.7021 212.302 32.3387C212.142 31.9681 212.062 31.532 212.062 31.0306C212.062 30.5945 212.182 30.1767 212.422 29.7769C212.661 29.37 213.05 29.0102 213.588 28.6977C214.126 28.3852 214.827 28.1309 215.692 27.9346C216.557 27.7312 217.618 27.6149 218.875 27.5858V26.7246C218.875 25.8671 218.69 25.2203 218.319 24.7842C217.948 24.3409 217.407 24.1192 216.695 24.1192C216.215 24.1192 215.812 24.181 215.485 24.3046C215.165 24.4208 214.885 24.5553 214.645 24.7079C214.413 24.8533 214.209 24.9877 214.035 25.1112C213.868 25.2275 213.701 25.2857 213.534 25.2857C213.403 25.2857 213.29 25.253 213.196 25.1876C213.101 25.1149 213.021 25.0277 212.956 24.9259L212.607 24.3046Z" fill="#038E7A"/>
</svg>
