<svg width="151" height="151" viewBox="0 0 151 151" fill="none" xmlns="http://www.w3.org/2000/svg">
<path d="M96.4605 50.5551C95.8993 50.1917 95.2445 49.907 94.541 49.7025L109.801 41.9045C92.3624 30.6091 63.2279 29.1166 44.7266 38.5711L58.7002 47.6225C59.0018 47.11 59.5237 46.6391 60.2655 46.2598C62.6636 45.0343 66.44 45.2278 68.7 46.6918C70.9603 48.1558 70.8486 50.3362 68.4505 51.5614C67.7084 51.9404 66.8343 52.1832 65.914 52.2949L76.3008 59.0229L86.5308 53.7954C86.8008 54.2215 87.2151 54.6293 87.7762 54.9927C90.0366 56.4567 93.8126 56.6502 96.2107 55.4247C98.6088 54.1992 98.7205 52.0191 96.4605 50.5551Z" fill="#244D4D"/>
<path d="M94.541 49.7023L94.8557 43.5618L110.116 35.7642L109.801 41.9043L94.541 49.7023Z" fill="#244D4D"/>
<path d="M98.0802 52.9966L98.2682 49.3258L98.3989 46.7734L86.8457 47.6548L86.5312 53.7953C86.8013 54.2215 87.2155 54.6293 87.7767 54.9927C90.037 56.4567 93.813 56.6502 96.2111 55.4246C97.4477 54.7931 98.0713 53.9071 98.0802 52.9966Z" fill="#1F3838"/>
<path d="M96.775 44.4145C96.2138 44.0511 95.5589 43.7664 94.8554 43.5619L110.115 35.7639C92.6768 24.4685 63.5423 22.976 45.041 32.4302L59.0147 41.4816C59.3162 40.9691 59.8382 40.4982 60.5803 40.1189C62.9784 38.8934 66.7548 39.0869 69.0148 40.5509C71.2751 42.0149 71.1633 44.1953 68.7652 45.4205C68.0231 45.7995 67.1491 46.0423 66.2288 46.1541L76.6156 52.882L86.8456 47.6545C87.1156 48.0807 87.5298 48.4885 88.091 48.8519C90.3513 50.3159 94.1274 50.5094 96.5255 49.2838C98.9235 48.0589 99.0353 45.8788 96.775 44.4145Z" fill="#346056"/>
<path d="M73.8804 27.1536C86.6888 27.1536 99.084 30.2485 108.201 35.6835L94.4265 42.7223C94.0824 42.898 93.8803 43.2663 93.9171 43.6508C93.9535 44.0356 94.2214 44.3589 94.5924 44.4667C95.2301 44.6522 95.7922 44.9005 96.2628 45.2054C97.0499 45.7152 97.4846 46.3293 97.4559 46.8902C97.4271 47.4514 96.9317 48.0177 96.0969 48.4445C95.2099 48.8976 94.0346 49.1474 92.788 49.1474C91.1951 49.1474 89.6701 48.7513 88.6038 48.0609C88.1712 47.7805 87.8476 47.474 87.6422 47.1501C87.464 46.8688 87.1591 46.712 86.8453 46.712C86.7005 46.712 86.5538 46.7454 86.417 46.8155L76.6716 51.7953L68.5647 46.5442C68.7827 46.4582 68.9927 46.3636 69.1945 46.2604C70.6667 45.5079 71.5136 44.3941 71.5785 43.1239C71.6437 41.8537 70.915 40.6591 69.5273 39.7603C68.164 38.877 66.2652 38.3706 64.3181 38.3706C62.7561 38.3706 61.3154 38.685 60.1511 39.2799C59.6202 39.5511 59.172 39.868 58.8108 40.2268L46.9542 32.5467C54.4597 29.0612 63.9449 27.1536 73.8804 27.1536ZM73.8804 26.2109C63.4743 26.2109 53.2201 28.2508 45.041 32.4304L59.0147 41.4817C59.3162 40.9692 59.8382 40.4984 60.5803 40.1194C61.6402 39.5778 62.9698 39.3133 64.3184 39.3133C66.0209 39.3133 67.7537 39.7345 69.0151 40.5513C71.2754 42.0154 71.1636 44.1958 68.7656 45.421C68.0234 45.8 67.1494 46.0428 66.2291 46.1545L76.6159 52.8825L86.8459 47.655C87.1159 48.0811 87.5301 48.4889 88.0913 48.8523C89.3523 49.6691 91.0858 50.0904 92.788 50.0904C94.1369 50.0904 95.4659 49.8259 96.5261 49.2843C98.9242 48.0588 99.0359 45.8787 96.7756 44.4147C96.2144 44.0513 95.5596 43.7665 94.856 43.562L110.116 35.7641C100.386 29.462 87.0134 26.2109 73.8804 26.2109Z" fill="#346056"/>
<path d="M76.3008 59.0233L76.6152 52.8828L86.8452 47.6553L86.5305 53.7957L76.3008 59.0233Z" fill="#244D4D"/>
<path d="M65.9141 52.2952L66.2285 46.1548L76.6153 52.8828L76.3008 59.0232L65.9141 52.2952Z" fill="#1F3838"/>
<path d="M58.7005 47.6225L59.0149 41.482L45.0413 32.4307L44.7266 38.5711L58.7005 47.6225Z" fill="#1F3838"/>
<path d="M121.081 52.2573L105.348 59.049L104.609 65.389C102.404 65.645 99.879 65.0979 98.2549 63.8895C97.7185 63.4903 97.3316 63.0568 97.0897 62.6141L86.5422 67.1672L92.7356 71.7757L85.8301 73.2746L90.7242 76.9162L90.103 82.2439L90.1042 82.2442C89.9888 83.1283 90.4621 84.0832 91.5536 84.8954C93.7141 86.503 97.4699 86.9411 99.9424 85.8736C100.811 85.4989 101.399 84.9867 101.711 84.4123L116.084 95.1071C125.307 91.1259 130.272 87.3437 131.319 80.8402L131.337 80.8227L132.307 72.504C133.095 65.7417 129.416 58.4587 121.081 52.2573Z" fill="#A8E5B5"/>
<path d="M90.7426 76.7604L95.6119 74.8625L95.7135 73.9906L86.5425 67.1665L85.8301 73.2736L90.7245 76.9153L90.7426 76.7604Z" fill="#73E9A2"/>
<path d="M116.725 89.6239C135.8 81.3897 137.751 64.6601 121.083 52.2573L105.349 59.049C106.038 59.2988 106.673 59.6255 107.209 60.0244C109.37 61.632 109.117 63.8004 106.645 64.8677C104.172 65.9349 100.416 65.4968 98.2557 63.8895C97.7193 63.4903 97.3323 63.0568 97.0905 62.6138L86.543 67.1669L95.714 73.9907C94.6538 74.0087 93.6267 74.1939 92.7584 74.5687C90.286 75.6359 90.0331 77.8044 92.1936 79.412C94.3541 81.0196 98.11 81.4577 100.582 80.3901C101.451 80.0154 102.039 79.5032 102.351 78.9289L116.725 89.6239Z" fill="#B9EFC5"/>
<path d="M120.953 53.3399C128.442 59.0603 132.139 65.8109 131.371 72.3944C130.604 78.9779 125.453 84.6967 116.848 88.5402L102.914 78.1727C102.78 78.0729 102.624 78.0116 102.461 77.9927C102.358 77.9807 102.252 77.9856 102.149 78.0083C101.882 78.067 101.654 78.2385 101.523 78.4785C101.301 78.8878 100.846 79.2497 100.209 79.5246C99.1778 79.9698 97.7824 80.1311 96.3802 79.9676C94.9783 79.8042 93.6573 79.3259 92.7563 78.6555C92.0041 78.0958 91.6098 77.4548 91.675 76.8966C91.7399 76.3385 92.2711 75.8055 93.1319 75.4338C93.8526 75.1228 94.7512 74.9495 95.7299 74.9327C96.1334 74.9259 96.4877 74.663 96.6113 74.279C96.735 73.8948 96.6003 73.4748 96.2767 73.2338L88.4157 67.3845L96.7601 63.7827C97.0198 64.0879 97.3314 64.3763 97.6927 64.6451C98.8683 65.5198 100.477 66.1137 102.224 66.3173C103.97 66.5209 105.672 66.3133 107.018 65.7325C108.536 65.0774 109.453 64.0205 109.601 62.7571C109.748 61.4936 109.099 60.2543 107.772 59.2673C107.704 59.2167 107.635 59.1671 107.564 59.1188L120.953 53.3399ZM121.083 52.2573L105.349 59.049C106.038 59.2988 106.673 59.6255 107.209 60.0244C109.37 61.632 109.117 63.8004 106.645 64.8677C105.408 65.4013 103.851 65.5587 102.333 65.3817C100.815 65.2047 99.3358 64.6932 98.2557 63.8895C97.7193 63.4903 97.3323 63.0568 97.0905 62.6141L86.543 67.1672L95.714 73.991C94.6538 74.009 93.6267 74.1942 92.7584 74.569C90.286 75.6362 90.0331 77.8047 92.1936 79.4123C93.2737 80.2159 94.753 80.7275 96.2709 80.9045C97.7891 81.0814 99.3459 80.9244 100.582 80.3904C101.45 80.0157 102.038 79.5038 102.351 78.9292L116.724 89.6239C135.8 81.3897 137.751 64.6601 121.083 52.2573Z" fill="#B9EFC5"/>
<path d="M101.711 84.4121L102.35 78.9292L116.723 89.624L116.084 95.1068L101.711 84.4121Z" fill="#73E9A2"/>
<path d="M110.357 115.842L94.8415 106.884C94.6045 106.747 94.3201 106.72 94.0623 106.809C93.8039 106.898 93.597 107.095 93.4953 107.349C93.3218 107.781 92.9124 108.193 92.3111 108.54C90.2774 109.714 86.8418 109.714 84.8083 108.54C83.9964 108.072 83.5304 107.48 83.5304 106.919C83.5304 106.357 83.9964 105.765 84.8083 105.297C85.488 104.904 86.3602 104.628 87.3307 104.498C87.7305 104.445 88.0523 104.142 88.1304 103.747C88.2087 103.351 88.0263 102.949 87.6766 102.747L77.777 97.0318C77.4855 96.8631 77.1258 96.8631 76.8343 97.0318L66.9922 102.714C66.6162 102.148 66.0566 101.644 65.3322 101.226C62.6999 99.706 58.5761 99.706 55.9441 101.226C54.5123 102.053 53.7236 103.208 53.7236 104.481C53.7236 105.753 54.5119 106.908 55.9441 107.735C56.3473 107.968 56.7897 108.167 57.2639 108.331L44.2547 115.842C43.9629 116.01 43.7832 116.322 43.7832 116.659C43.7832 116.996 43.9629 117.307 44.2547 117.475C53.3666 122.736 65.3362 125.366 77.3055 125.366C89.2747 125.366 101.244 122.736 110.357 117.475C110.648 117.307 110.828 116.995 110.828 116.659C110.828 116.322 110.648 116.01 110.357 115.842Z" fill="#E8E8E8"/>
<path d="M94.4857 99.8925C94.242 100.499 93.7169 101.076 92.898 101.549C91.3847 102.422 89.2627 102.726 87.3211 102.465V95.756L77.4214 90.0405L66.6743 96.2453C66.516 95.5105 65.9539 94.799 64.9767 94.2348C62.6445 92.8883 58.8632 92.8883 56.5312 94.2348C55.3651 94.908 54.7822 95.7903 54.7822 96.673V103.112L44.8418 108.851V116.57C62.8349 126.959 92.008 126.959 110.001 116.57V108.85L94.4857 99.8925Z" fill="#54CD85"/>
<path d="M94.4857 99.8925C94.242 100.499 93.7169 101.076 92.898 101.549C90.5657 102.895 86.7844 102.895 84.4525 101.549C82.1205 100.202 82.1202 98.0191 84.4525 96.6727C85.2714 96.2 86.2704 95.8969 87.3211 95.756L77.4214 90.0405L66.6743 96.2453C66.516 95.5105 65.9539 94.799 64.9767 94.2348C62.6445 92.8883 58.8632 92.8883 56.5312 94.2348C54.199 95.5812 54.199 97.7644 56.5312 99.1108C57.5085 99.6751 58.7407 99.9996 60.0137 100.091L44.8418 108.85C62.8349 119.239 92.008 119.239 110.001 108.85L94.4857 99.8925Z" fill="#73E9A2"/>
<path d="M77.4214 91.1287L84.8649 95.4261C84.5517 95.5538 84.2562 95.6977 83.9813 95.8563C82.5495 96.6829 81.7608 97.8386 81.7608 99.1107C81.7608 100.383 82.5495 101.538 83.9813 102.365C85.2503 103.098 86.9173 103.501 88.6755 103.501C90.4338 103.501 92.1007 103.098 93.3697 102.365C93.9597 102.024 94.4456 101.62 94.8108 101.168L108.085 108.832C99.7065 113.269 88.8947 115.699 77.4214 115.699C65.9481 115.699 55.1367 113.269 46.7577 108.833L60.4852 100.907C60.8437 100.7 61.0252 100.283 60.9325 99.8797C60.8397 99.4762 60.4944 99.1805 60.0814 99.1508C58.9064 99.0666 57.8131 98.7623 57.0027 98.2945C56.1908 97.8258 55.7248 97.2346 55.7248 96.6728C55.7248 96.111 56.1905 95.5198 57.0027 95.0511C57.9754 94.4896 59.3429 94.1676 60.7543 94.1676C62.1659 94.1676 63.5332 94.4896 64.5059 95.0511C65.2036 95.454 65.6466 95.9484 65.7531 96.4438C65.8165 96.7383 66.017 96.9848 66.2922 97.1069C66.4144 97.1611 66.5445 97.1877 66.6746 97.1877C66.8378 97.1877 67.0007 97.1455 67.1461 97.0613L77.4214 91.1287ZM77.4214 90.04L66.6743 96.2448C66.516 95.51 65.9539 94.7985 64.9767 94.2343C63.8109 93.5611 62.2823 93.2246 60.754 93.2243C59.2254 93.2243 57.6974 93.5608 56.5312 94.2343C54.199 95.5807 54.199 97.7639 56.5312 99.1104C57.5085 99.6746 58.7407 99.9991 60.0137 100.09L44.8418 108.85C53.8374 114.043 65.6313 116.641 77.4214 116.641C89.2144 116.641 101.004 114.045 110.001 108.85L94.4863 99.8923C94.2426 100.499 93.7175 101.076 92.8986 101.549C91.7324 102.222 90.2041 102.559 88.6758 102.559C87.1475 102.559 85.6192 102.222 84.4531 101.549C82.1208 100.202 82.1208 98.0189 84.4531 96.6725C85.2721 96.1998 86.271 95.8967 87.3217 95.7559L77.4214 90.04Z" fill="#73E9A2"/>
<path d="M31.6124 86.861C31.6124 86.861 30.9952 86.425 31.1669 85.1658C31.3041 84.1616 31.3971 83.2796 31.778 83.0335C32.0743 82.8418 32.0909 83.5573 32.1132 84.3239C32.1132 84.3239 33.2313 82.5537 33.8405 82.1588C34.4501 81.7642 33.659 83.2974 33.1655 84.2483C33.1655 84.2483 34.593 82.2366 35.0122 82.4282C35.4313 82.6199 33.9428 84.4957 33.9428 84.4957C33.9428 84.4957 35.4301 83.2557 35.6887 83.4808C35.9282 83.6892 34.4329 85.2555 34.4329 85.2555C34.4329 85.2555 35.5969 84.4255 35.8773 84.6463C36.0861 84.8107 34.3778 86.7667 32.9637 87.1895C32.4797 87.3343 31.8879 87.1598 31.6124 86.861Z" fill="#E0AF9E"/>
<path d="M65.5648 71.0442L59.2336 67.0657L59.4473 61.3545C59.4485 61.3315 59.4494 61.3089 59.4497 61.2859L59.451 61.2516L59.4482 61.2522C59.4513 60.3922 58.9054 59.5167 57.7947 58.8186C55.5145 57.3858 51.736 57.2444 49.355 58.5027C48.6184 58.8921 48.1029 59.37 47.8084 59.8865L33.7113 51.0283C24.7668 55.7553 20.0301 62.171 19.5531 68.7866L19.5418 68.7927L19.5222 69.3193C19.5222 69.3199 19.5222 69.3205 19.5222 69.3211L19.2335 77.0337C19.2335 77.0343 19.2335 77.0349 19.2335 77.0355L19.209 77.6891L19.2234 77.694C19.258 84.2864 23.5034 90.9874 32.0153 96.3362L47.5043 88.1506C46.236 88.0116 45.0166 87.6412 44.0611 87.0408C42.1228 85.8227 41.8978 84.0657 43.3346 82.7924L45.4014 81.7C47.7263 80.9852 50.745 81.2659 52.6832 82.4841C53.6387 83.0844 54.1735 83.8165 54.3043 84.5567L65.2761 78.7582L58.7398 74.6509L65.5648 71.0442Z" fill="#038E7A"/>
<path d="M44.35 79.3267C42.0698 77.894 42.1516 75.7123 44.5325 74.454C46.9134 73.1958 50.6919 73.3372 52.9721 74.77C53.9276 75.3704 54.4625 76.1024 54.5932 76.8426L65.565 71.0441L55.0867 64.4598C56.0052 64.3352 56.8762 64.0807 57.6128 63.6913C59.9937 62.433 60.0755 60.2514 57.7952 58.8186C55.515 57.3858 51.7365 57.2444 49.3556 58.5027C48.619 58.8921 48.1034 59.37 47.8089 59.8865L33.7119 51.0283C15.3426 60.7364 14.7122 77.5676 32.3042 88.6218L47.7933 80.4362C46.5246 80.2975 45.3052 79.9271 44.35 79.3267Z" fill="#44AE75"/>
<path d="M33.6746 52.1187L47.3074 60.6851C47.4489 60.7739 47.6099 60.8229 47.7737 60.829C47.8619 60.8324 47.951 60.8232 48.0382 60.8014C48.2874 60.739 48.5005 60.5773 48.6279 60.3542C48.8416 59.9794 49.2454 59.6277 49.7961 59.3368C50.789 58.8121 52.1676 58.5414 53.578 58.5941C54.9885 58.6471 56.3429 59.02 57.2938 59.6173C58.0876 60.1163 58.5309 60.7243 58.5101 61.2855C58.489 61.8469 58.0016 62.4201 57.1725 62.8582C56.5599 63.1818 55.7952 63.4129 54.9603 63.5259C54.5672 63.5792 54.2494 63.8727 54.1655 64.2606C54.0816 64.6482 54.2494 65.0471 54.5853 65.2581L63.681 70.9736L55.0769 75.5209C54.7224 74.941 54.1821 74.4169 53.4736 73.9717C52.2328 73.192 50.582 72.7266 48.8253 72.6608C47.0686 72.595 45.3876 72.9357 44.0919 73.6206C42.6301 74.393 41.7989 75.5187 41.7511 76.7896C41.7034 78.0607 42.4482 79.2452 43.8482 80.1248C44.2426 80.3724 44.6773 80.5883 45.1451 80.7695L32.3483 87.5324C24.4322 82.4184 20.2165 75.9789 20.4645 69.3556C20.7124 62.7326 25.3981 56.6265 33.6746 52.1187ZM33.7119 51.0288C15.3426 60.7368 14.7122 77.5681 32.3042 88.6223L47.7933 80.4367C46.5246 80.2977 45.3055 79.9273 44.35 79.3269C42.0698 77.8941 42.1516 75.7125 44.5325 74.4542C45.7231 73.8251 47.2631 73.5459 48.7901 73.6031C50.3175 73.6604 51.832 74.0538 52.9721 74.7702C53.9276 75.3705 54.4625 76.1025 54.5932 76.8428L65.565 71.0443L55.0867 64.4599C56.0052 64.3353 56.8762 64.0809 57.6128 63.6915C59.9937 62.4332 60.0755 60.2516 57.7952 58.8188C56.6551 58.1024 55.1406 57.7087 53.6132 57.6518C52.0858 57.5948 50.5459 57.8737 49.3556 58.5029C48.619 58.8923 48.1034 59.3702 47.8089 59.8867L33.7119 51.0288Z" fill="#44AE75"/>
<path d="M32.0156 96.3368L32.3046 88.6224L47.7937 80.4365L47.5047 88.1509L32.0156 96.3368Z" fill="#237A66"/>
<path d="M54.3047 84.5568L54.5934 76.8424L65.5652 71.0439L65.2762 78.7583L54.3047 84.5568Z" fill="#237A66"/>
</svg>
