<svg width="53" height="40" viewBox="0 0 53 40" fill="none" xmlns="http://www.w3.org/2000/svg">
<path fill-rule="evenodd" clip-rule="evenodd" d="M17.8526 0.612133C14.7824 1.25287 12.2455 2.0448 9.36218 3.26253L8.41823 3.66119L7.73997 4.70481C6.21683 7.04837 4.43846 10.4728 3.47141 12.9244C2.04018 16.5527 1.10086 20.3731 0.693519 24.2231C0.385923 27.13 0.460377 33.0324 0.808192 33.3072C0.884332 33.3673 1.59168 33.8485 2.38007 34.3765C5.54666 36.497 8.87161 38.1408 12.4471 39.3534C13.2073 39.6112 13.8398 39.8221 13.8528 39.8221C13.9702 39.8221 15.9932 36.6064 16.4967 35.6194L16.6619 35.2956L15.9292 35.0121C15.1592 34.7141 12.7027 33.5141 12.414 33.2949C12.2482 33.169 12.2496 33.1633 12.4983 32.9553C12.6375 32.8388 12.8854 32.6483 13.0493 32.5318L13.3473 32.32L14.3512 32.7455C18.2689 34.4057 22.261 35.2146 26.5374 35.2146C30.8165 35.2146 34.65 34.4393 38.6058 32.7738L39.7024 32.3121L40.2501 32.7479L40.7977 33.1837L40.4342 33.3916C39.6844 33.8205 38.184 34.5502 37.2785 34.9265L36.3414 35.3159L36.9294 36.3675C37.4332 37.2684 38.6753 39.211 39.0424 39.6719C39.1509 39.8081 39.1988 39.8043 39.8345 39.609C42.4777 38.7974 46.187 37.1269 48.7133 35.6106C49.5794 35.0907 51.7768 33.644 52.1454 33.3509C52.3136 33.2171 52.3407 33.079 52.4302 31.8961C52.5746 29.9866 52.4833 25.5103 52.2634 23.7172C51.4182 16.8254 49.1757 10.7378 45.2369 4.64292C44.5507 3.581 44.6263 3.63185 42.4737 2.78141C40.0765 1.83425 37.6773 1.12429 35.1434 0.612133C34.3536 0.452433 33.8924 0.394253 33.8296 0.446362C33.7764 0.490546 33.4514 1.11779 33.1074 1.84024L32.4819 3.15376L32.1173 3.10721C29.8944 2.82314 29.0425 2.77238 26.4953 2.77238C23.9867 2.77238 22.4444 2.86598 20.8783 3.1132L20.5734 3.16135L19.8782 1.76106C19.4958 0.990978 19.1397 0.363899 19.0869 0.367693C19.0341 0.371487 18.4787 0.481439 17.8526 0.612133ZM16.8637 16.9242C14.1453 17.5829 12.5057 20.7802 13.3928 23.6927C13.9078 25.3833 15.3335 26.82 16.8408 27.1671C17.3973 27.2953 18.42 27.2773 18.9879 27.1293C19.6925 26.9459 20.2515 26.6203 20.8855 26.0245C23.0589 23.9821 23.1222 20.2938 21.02 18.1916C19.8622 17.0338 18.3342 16.5679 16.8637 16.9242ZM34.3369 16.8891C33.4563 17.0654 32.6508 17.5216 31.9607 18.235C29.9535 20.31 29.9785 23.8508 32.0148 25.9026C32.9183 26.813 33.9585 27.2586 35.1801 27.2586C35.5607 27.2586 36.0702 27.1986 36.3242 27.1241C37.8535 26.6749 39.1066 25.3803 39.6218 23.7172C39.9049 22.8034 39.9043 21.1546 39.6207 20.3023C39.3317 19.4337 38.9737 18.8576 38.3054 18.185C37.2053 17.0778 35.757 16.6048 34.3369 16.8891Z" fill="#5865F2"/>
</svg>
