<svg width="53" height="54" viewBox="0 0 53 54" fill="none" xmlns="http://www.w3.org/2000/svg">
<path fill-rule="evenodd" clip-rule="evenodd" d="M47.9586 0.84686C47.3559 0.94209 46.9054 1.17762 46.4426 1.63941C45.8868 2.19414 45.6403 2.78383 45.6421 3.55474C45.6432 4.00554 45.7245 4.36652 45.906 4.72605C45.973 4.85882 46.0279 4.98818 46.0279 5.01344C46.0279 5.05881 45.6422 5.60642 44.6954 6.90525C44.4284 7.27152 43.8576 8.05816 43.4268 8.65335C42.9961 9.24853 42.5469 9.86661 42.4285 10.0268C42.3102 10.1871 41.3177 11.5544 40.2231 13.0652C39.1284 14.5761 38.0756 16.0276 37.8835 16.2909C37.6914 16.5541 36.8466 17.7193 36.0062 18.8802C34.8912 20.4201 34.4611 20.9843 34.4156 20.9665C34.3812 20.9531 34.1633 20.9327 33.9313 20.9212C33.3061 20.8903 32.7629 21.0353 32.2694 21.3651L32.1418 21.4503L31.6243 21.1336C31.3396 20.9594 30.9756 20.7372 30.8153 20.6398C30.6551 20.5423 28.5948 19.2803 26.237 17.8353L21.95 15.2079L21.9258 14.6568C21.9062 14.2125 21.8807 14.0468 21.7938 13.8016C21.4967 12.9626 20.7647 12.2931 19.8897 12.06C19.3068 11.9047 18.5341 11.9912 17.9756 12.2742C17.0319 12.7524 16.4074 13.8465 16.4921 14.8731L16.5181 15.1879L13.8669 16.8111C12.4088 17.7039 10.1133 19.1098 8.76578 19.9354L6.31587 21.4365L5.89191 21.225C5.41219 20.9856 5.11168 20.9108 4.62929 20.9108C3.89697 20.9108 3.25446 21.1839 2.71459 21.7246C2.44555 21.994 2.34041 22.1369 2.20723 22.4137C1.67784 23.5141 1.88108 24.7245 2.73782 25.5735C3.57919 26.4073 4.82783 26.5987 5.88983 26.0567C6.41664 25.7879 6.82977 25.3706 7.08903 24.8454C7.28906 24.4401 7.36789 24.0657 7.35857 23.5646L7.35087 23.1501L12.4407 20.0326C15.2401 18.318 17.544 16.9152 17.5605 16.9152C17.577 16.9152 17.6981 16.98 17.8296 17.0592C18.6664 17.5631 19.7941 17.5559 20.6304 17.0413C20.7505 16.9674 20.8732 16.9163 20.9031 16.9278C20.933 16.9393 22.7915 18.071 25.0331 19.4427C27.2748 20.8145 29.3898 22.1085 29.7332 22.3184C30.0765 22.5283 30.5167 22.799 30.7113 22.9201L31.065 23.1402L31.0692 23.5967C31.0742 24.1416 31.1519 24.468 31.381 24.9065C32.056 26.1983 33.6762 26.7296 34.9877 26.0893C35.9132 25.6374 36.5104 24.6852 36.5126 23.6578C36.5137 23.1925 36.4543 22.917 36.2625 22.497C36.1853 22.3278 36.122 22.1746 36.122 22.1566C36.122 22.1262 37.1677 20.6814 44.8345 10.1185L47.6681 6.21463L47.8989 6.24651C48.8004 6.37092 49.5911 6.12706 50.2269 5.52838C50.7979 4.99076 51.0719 4.36989 51.0797 3.59636C51.085 3.07672 51.0285 2.81963 50.8072 2.35467C50.6067 1.93338 50.1651 1.44812 49.7675 1.21217C49.259 0.910373 48.5118 0.759497 47.9586 0.84686ZM47.8969 13.0458C46.9414 13.1575 46.0505 13.6015 45.38 14.3C44.8245 14.8788 44.472 15.5477 44.2872 16.3741C44.2224 16.6637 44.2174 18.066 44.2174 35.832C44.2174 53.598 44.2224 50.0004 44.2872 50.29C44.4646 51.0833 44.8221 51.7665 45.3616 52.3433C46.552 53.6158 48.4572 53.988 50.0883 53.2667C50.4773 53.0946 50.9787 52.7354 51.3185 52.3853C51.8686 51.8185 52.2074 51.2088 52.4066 50.4276L52.5 50.0611V35.8112V16.5614L52.386 16.1481C51.9144 14.4376 50.5293 13.2407 48.7957 13.0456C48.3817 12.999 48.2969 12.999 47.8969 13.0458ZM18.3693 24.2601C16.6911 24.6444 15.473 25.8917 15.1367 27.5702C15.0928 27.7891 15.0825 30.4416 15.0825 41.4717V50.1027L15.1931 50.5031C15.4052 51.2702 15.7519 51.8813 16.2716 52.4041C17.5343 53.6744 19.4743 53.9957 21.0669 53.1983C22.357 52.5524 23.1929 51.33 23.3426 49.8704C23.4027 49.285 23.4027 28.5335 23.3426 27.9482C23.1655 26.222 22.0255 24.8396 20.3684 24.3415C20.0394 24.2426 19.9103 24.2273 19.307 24.2158C18.8288 24.2066 18.544 24.22 18.3693 24.2601ZM3.89156 33.1678C2.2503 33.5096 1.0725 34.6186 0.608261 36.2593L0.517194 36.5812L0.50371 45.6547C0.493887 52.2682 0.503042 49.8181 0.537504 50.0601C0.664116 50.9494 1.1068 51.8333 1.73149 52.4441C2.52438 53.2195 3.50864 53.6225 4.61635 53.6253C5.38622 53.6273 5.90586 53.5024 6.57421 53.1549C7.6567 52.592 8.4557 51.5374 8.6979 50.352C8.77565 49.9712 8.77764 54.6972 8.76699 45.729L8.75604 36.498L8.64138 36.1324C8.40409 35.3761 8.09239 34.8444 7.58711 34.3341C7.06564 33.8076 6.41052 33.4293 5.67511 33.2301C5.24183 33.1128 4.31185 33.0803 3.89156 33.1678ZM33.0376 33.1679C31.3906 33.4804 30.1577 34.6802 29.7227 36.3939C29.6602 36.6403 29.6527 37.465 29.6393 45.613C29.6285 52.1162 29.6374 49.6675 29.6717 49.949C29.7965 50.9717 30.1984 51.7789 30.9349 52.4861C31.7199 53.2396 32.6881 53.6261 33.7912 53.6261C35.6704 53.6261 37.2697 52.4105 37.7917 50.5855C37.9568 50.0081 37.9602 54.7787 37.9421 45.5662L37.9246 36.6645L37.8141 36.2483C37.4123 34.7356 36.3008 33.6215 34.7974 33.2246C34.3733 33.1127 33.4804 33.0839 33.0376 33.1679Z" fill="#038E7A"/>
</svg>
