<svg width="151" height="151" viewBox="0 0 151 151" fill="none" xmlns="http://www.w3.org/2000/svg">
<path d="M115.562 70.8032H30.5176V125.788H115.562V70.8032Z" fill="#244D4D"/>
<path d="M88.7608 65.1089H115.562V70.8035H87.2207L88.7608 65.1089Z" fill="#244D4D"/>
<path d="M45.623 31.6241L45.92 32.7259L46.2147 31.6234C46.4812 30.6267 46.5383 29.6368 46.5482 28.6693L46.5483 28.6693L46.5482 28.6628C46.5377 27.6949 46.4786 26.7048 46.2086 25.7085L45.9117 24.6126L45.6171 25.7091C45.3492 26.7061 45.2921 27.6962 45.2835 28.6641L45.2834 28.6641L45.2835 28.6705C45.2954 29.6381 45.3545 30.6279 45.623 31.6241Z" fill="#038E7A" stroke="#038E7A" stroke-width="0.612717"/>
<path d="M51.4852 33.1542L51.1908 34.2584L51.9981 33.4496C52.7269 32.7194 53.2711 31.8911 53.764 31.0579L53.7641 31.0579L53.7673 31.0522C54.242 30.2088 54.6858 29.3225 54.9504 28.3241L55.2413 27.226L54.4377 28.0289C53.7073 28.7586 53.1624 29.5877 52.6712 30.4214L52.6711 30.4213L52.6679 30.427C52.1947 31.2708 51.751 32.1575 51.4852 33.1542Z" fill="#038E7A" stroke="#038E7A" stroke-width="0.612717"/>
<path d="M55.7968 37.411L54.9895 38.2198L56.0932 37.9233C57.0899 37.6554 57.976 37.2097 58.8184 36.7352L58.8184 36.7353L58.8241 36.7319C59.6571 36.2387 60.4842 35.6925 61.2125 34.9608L62.0142 34.1553L60.9163 34.4487C59.9187 34.7152 59.0325 35.1603 58.1901 35.6371L58.1901 35.6371L58.1845 35.6404C57.3532 36.1347 56.5257 36.6808 55.7968 37.411Z" fill="#038E7A" stroke="#038E7A" stroke-width="0.612717"/>
<path d="M57.4027 43.2524L56.3005 43.5495L57.4033 43.8442C58.4007 44.1106 59.3905 44.1677 60.3575 44.1776L60.3575 44.1777L60.364 44.1776C61.3318 44.167 62.3219 44.108 63.3183 43.838L64.4142 43.5411L63.3177 43.2464C62.3206 42.9785 61.3306 42.9215 60.3627 42.9129L60.3627 42.9128L60.3562 42.9129C59.3886 42.9248 58.3988 42.9839 57.4027 43.2524Z" fill="#038E7A" stroke="#038E7A" stroke-width="0.612717"/>
<path d="M55.8719 49.1141L54.7678 48.8197L55.5765 49.627C56.3067 50.3558 57.1349 50.9006 57.9684 51.393L57.9684 51.3931L57.974 51.3962C58.8174 51.8709 59.7043 52.3147 60.702 52.5793L61.8004 52.8705L60.9973 52.0666C60.2675 51.3362 59.4384 50.7913 58.6048 50.3001L58.6048 50.3L58.5991 50.2968C57.7553 49.8236 56.8686 49.3799 55.8719 49.1141Z" fill="#038E7A" stroke="#038E7A" stroke-width="0.612717"/>
<path d="M51.6168 53.4257L50.808 52.6184L51.1045 53.7221C51.3723 54.7188 51.8174 55.6041 52.2926 56.4473L52.2926 56.4474L52.2959 56.453C52.7891 57.286 53.3353 58.1131 54.067 58.8414L54.8725 59.6431L54.5791 58.5452C54.3126 57.5475 53.8668 56.6612 53.3908 55.8192L53.3908 55.8191L53.3874 55.8134C52.8931 54.9821 52.347 54.1546 51.6168 53.4257Z" fill="#038E7A" stroke="#038E7A" stroke-width="0.612717"/>
<path d="M45.7751 55.0316L45.4781 53.9297L45.1833 55.0322C44.9169 56.029 44.8598 57.0188 44.8499 57.9864L44.8498 57.9864L44.8499 57.9929C44.8604 58.9607 44.9195 59.9508 45.1895 60.9472L45.4864 62.0431L45.781 60.9466C46.049 59.9495 46.106 58.9595 46.1146 57.9916L46.1147 57.9916L46.1146 57.9851C46.1027 57.0176 46.0436 56.0277 45.7751 55.0316Z" fill="#038E7A" stroke="#038E7A" stroke-width="0.612717"/>
<path d="M39.9131 53.5003L40.207 52.3975L39.4004 53.2049C38.6708 53.9352 38.1266 54.7642 37.6343 55.5967L37.6343 55.5967L37.6311 55.6024C37.1564 56.4458 36.7125 57.3321 36.448 58.3305L36.1571 59.4285L36.9607 58.6257C37.6911 57.8959 38.236 57.0668 38.7272 56.2332L38.7272 56.2332L38.7304 56.2275C39.2036 55.3838 39.6473 54.4977 39.9131 53.5003Z" fill="#038E7A" stroke="#038E7A" stroke-width="0.612717"/>
<path d="M35.6009 49.2447L36.4082 48.4359L35.3045 48.7325C34.3078 49.0003 33.4224 49.446 32.5794 49.9205L32.5794 49.9204L32.5736 49.9238C31.7406 50.417 30.9135 50.9632 30.1852 51.695L29.3835 52.5004L30.4814 52.2071C31.4791 51.9405 32.3648 51.4947 33.2074 51.0187L33.2074 51.0188L33.2132 51.0154C34.0452 50.521 34.8721 49.9749 35.6009 49.2447Z" fill="#038E7A" stroke="#038E7A" stroke-width="0.612717"/>
<path d="M33.9956 43.403L35.0975 43.106L33.995 42.8113C32.9983 42.5448 32.0084 42.4877 31.0408 42.4778L31.0408 42.4778L31.0344 42.4778C30.0665 42.4884 29.0764 42.5475 28.08 42.8174L26.9841 43.1143L28.0807 43.409C29.0777 43.6769 30.0678 43.734 31.0356 43.7425L31.0356 43.7426L31.0421 43.7425C32.0097 43.7307 32.9995 43.6716 33.9956 43.403Z" fill="#038E7A" stroke="#038E7A" stroke-width="0.612717"/>
<path d="M35.5258 37.5411L36.6289 37.8352L35.8213 37.0283C35.0917 36.2994 34.2627 35.7546 33.4293 35.2622L33.4294 35.2621L33.4238 35.259C32.5804 34.7843 31.6941 34.3405 30.6956 34.0759L29.5976 33.785L30.4005 34.5886C31.1302 35.319 31.9593 35.8639 32.7929 36.3551L32.7929 36.3552L32.7986 36.3584C33.6424 36.8316 34.5291 37.2753 35.5258 37.5411Z" fill="#038E7A" stroke="#038E7A" stroke-width="0.612717"/>
<path d="M39.7817 33.2299L40.5904 34.0364L40.2938 32.9334C40.026 31.9374 39.581 31.0514 39.1058 30.2082L39.1058 30.2081L39.1025 30.2025C38.6093 29.3695 38.0631 28.5425 37.3314 27.8141L36.5259 27.0124L36.8193 28.1103C37.0858 29.108 37.5309 29.9942 38.0077 30.8365L38.0077 30.8365L38.011 30.8421C38.5052 31.674 39.0507 32.501 39.7817 33.2299Z" fill="#038E7A" stroke="#038E7A" stroke-width="0.612717"/>
<path d="M109.577 43.9844H54.2656V114.987H109.577V43.9844Z" fill="#EBEBEB"/>
<path d="M109.577 114.987L54.265 115.084H54.1685V114.987L54.1152 43.9841V43.834H54.2654L109.577 43.8686H109.692L109.692 43.9838L109.577 114.987ZM109.577 114.987L109.461 43.9844L109.577 44.0996L54.265 44.1342L54.4152 43.9841L54.3619 114.987L54.2654 114.89L109.577 114.987Z" fill="#DBDBDB"/>
<path d="M60.3145 59.1598L81.9201 59.105L103.526 59.1598L81.9201 59.2143L60.3145 59.1598Z" fill="#C7C7C7"/>
<path d="M60.3145 60.9212L81.9201 60.8667L103.526 60.9212L81.9201 60.9758L60.3145 60.9212Z" fill="#C7C7C7"/>
<path d="M60.3145 62.6837L81.9201 62.6289L103.526 62.6837L81.9201 62.7383L60.3145 62.6837Z" fill="#C7C7C7"/>
<path d="M60.3145 64.4456L81.9201 64.3911L103.526 64.4456L81.9201 64.5005L60.3145 64.4456Z" fill="#C7C7C7"/>
<path d="M60.3145 66.2079L81.9201 66.1533L103.526 66.2079L81.9201 66.2624L60.3145 66.2079Z" fill="#C7C7C7"/>
<path d="M60.3145 67.9701L81.9201 67.9155L103.526 67.9701L81.9201 68.0246L60.3145 67.9701Z" fill="#C7C7C7"/>
<path d="M60.3145 69.7318L81.9201 69.6772L103.526 69.7318L81.9201 69.7866L60.3145 69.7318Z" fill="#C7C7C7"/>
<path d="M60.3145 71.494L81.9201 71.4395L103.526 71.494L81.9201 71.5485L60.3145 71.494Z" fill="#C7C7C7"/>
<path d="M60.3145 73.256L81.9201 73.2012L103.526 73.256L81.9201 73.3105L60.3145 73.256Z" fill="#C7C7C7"/>
<path d="M60.3145 75.0179L81.9201 74.9634L103.526 75.0179L81.9201 75.0724L60.3145 75.0179Z" fill="#C7C7C7"/>
<path d="M60.3145 76.7801L81.9201 76.7256L103.526 76.7801L81.9201 76.8347L60.3145 76.7801Z" fill="#C7C7C7"/>
<path d="M60.3145 78.5421L81.9201 78.4873L103.526 78.5421L81.9201 78.5967L60.3145 78.5421Z" fill="#C7C7C7"/>
<path d="M60.3145 80.304L81.9201 80.2495L103.526 80.304L81.9201 80.3586L60.3145 80.304Z" fill="#C7C7C7"/>
<path d="M60.3145 82.0663L81.9201 82.0117L103.526 82.0663L81.9201 82.1208L60.3145 82.0663Z" fill="#C7C7C7"/>
<path d="M60.3145 83.828L81.9201 83.7734L103.526 83.828L81.9201 83.8828L60.3145 83.828Z" fill="#C7C7C7"/>
<path d="M68.1596 78.4873H64.8828V85.8825H68.1596V78.4873Z" fill="#FFC727"/>
<path d="M74.2397 74.543H70.9629V85.8825H74.2397V74.543Z" fill="#FFC727"/>
<path d="M80.3178 70.1274H77.041V85.8822H80.3178V70.1274Z" fill="#FFC727"/>
<path d="M86.3979 68.2305H83.1211V85.8825H86.3979V68.2305Z" fill="#FFC727"/>
<path d="M92.476 64.8506H89.1992V85.8824H92.476V64.8506Z" fill="#FFC727"/>
<path d="M98.5541 61.5107H95.2773V85.8825H98.5541V61.5107Z" fill="#FFC727"/>
<path d="M61.4863 57.9229L61.5715 64.9127L61.63 71.9026C61.6701 76.5626 61.6818 81.2223 61.6891 85.8823L61.4863 85.6795L71.9959 85.671L82.5056 85.6949L93.0152 85.7619L103.525 85.8823L93.0152 86.0027L82.5056 86.0698L71.9959 86.0937L61.4863 86.0852L61.2832 86.0848L61.2835 85.8823C61.2909 81.2223 61.3028 76.5626 61.3426 71.9026L61.4012 64.9127L61.4863 57.9229Z" fill="#C7C7C7"/>
<path d="M68.1596 87.3599H64.8828V87.6561H68.1596V87.3599Z" fill="#C7C7C7"/>
<path d="M74.2397 87.3599H70.9629V87.6561H74.2397V87.3599Z" fill="#C7C7C7"/>
<path d="M80.3178 87.3599H77.041V87.6561H80.3178V87.3599Z" fill="#C7C7C7"/>
<path d="M86.3979 87.3599H83.1211V87.6561H86.3979V87.3599Z" fill="#C7C7C7"/>
<path d="M92.476 87.3599H89.1992V87.6561H92.476V87.3599Z" fill="#C7C7C7"/>
<path d="M98.5541 87.3599H95.2773V87.6561H98.5541V87.3599Z" fill="#C7C7C7"/>
<path d="M65.2539 79.4206C66.8568 79.3992 68.455 79.2711 70.0398 79.0573C71.6259 78.8526 73.2012 78.5735 74.7553 78.2074C77.8593 77.4716 80.9119 76.4734 83.7577 75.0366C86.6221 73.6467 89.2936 71.852 91.6246 69.6803L92.0673 69.2786L92.487 68.8537L93.3225 67.9984C93.839 67.3918 94.3926 66.814 94.8628 66.1679C95.8778 64.9317 96.72 63.5681 97.5459 62.1953L97.572 62.2091C96.1155 65.0637 94.2179 67.7245 91.8786 69.9489C90.735 71.0886 89.451 72.0775 88.1324 73.0043C86.8123 73.9331 85.4068 74.7361 83.9629 75.4539C81.0644 76.8726 77.98 77.8916 74.8319 78.5539C71.6822 79.2013 68.4615 79.5551 65.2539 79.4206Z" fill="#263238"/>
<path d="M98.4736 64.475L98.0196 64.5887L97.4626 62.3522L95.2725 63.0713L95.127 62.6267L97.7941 61.7515L98.4736 64.475Z" fill="#263238"/>
<path d="M59.3932 98.6992H104.451V96.8761H59.3932V98.6992Z" fill="#DBDBDB"/>
<path d="M59.3921 103.301H84.7598V101.478H59.3921V103.301Z" fill="#DBDBDB"/>
<path d="M69.2358 53.6538H94.6035V51.8304H69.2358V53.6538Z" fill="#DBDBDB"/>
<path d="M99.0576 111.189L43.7461 111.161L43.7822 40.1582L84.8508 40.179L99.087 53.7152L99.0576 111.189Z" fill="#B9EFC5"/>
<path d="M84.8505 40.1792L99.0866 53.7153L84.8438 53.7083L84.8505 40.1792Z" fill="#73E9A2"/>
<path d="M49.1713 53.8979L79.9238 53.9136L79.9248 52.0901L49.1722 52.0745L49.1713 53.8979Z" fill="white"/>
<path d="M49.1693 58.499L79.9219 58.5146L79.9228 56.6912L49.1702 56.6755L49.1693 58.499Z" fill="white"/>
<path d="M49.1654 63.1016L79.918 63.1172L79.9189 61.2937L49.1663 61.2782L49.1654 63.1016Z" fill="white"/>
<path d="M49.1647 67.7041L94.2227 67.7271L94.2236 65.9039L49.1656 65.881L49.1647 67.7041Z" fill="white"/>
<path d="M49.1627 72.3062L94.2207 72.3291L94.2216 70.5057L49.1637 70.4828L49.1627 72.3062Z" fill="white"/>
<path d="M49.1608 76.9073L94.2188 76.9302L94.2197 75.1067L49.1617 75.0838L49.1608 76.9073Z" fill="white"/>
<path d="M49.1588 81.5093L94.2168 81.5322L94.2177 79.7088L49.1598 79.6859L49.1588 81.5093Z" fill="white"/>
<path d="M49.1569 86.1109L94.2148 86.1338L94.2158 84.3103L49.1578 84.2875L49.1569 86.1109Z" fill="white"/>
<path d="M49.1549 90.7129L94.2129 90.7358L94.2138 88.9124L49.1559 88.8895L49.1549 90.7129Z" fill="white"/>
<path d="M49.151 95.315L94.209 95.3379L94.2099 93.5144L49.1519 93.4916L49.151 95.315Z" fill="white"/>
<path d="M49.1491 99.9175L94.207 99.9404L94.208 98.117L49.15 98.0941L49.1491 99.9175Z" fill="white"/>
<path d="M49.1471 104.519L94.2051 104.542L94.206 102.719L49.148 102.696L49.1471 104.519Z" fill="white"/>
<path d="M30.7148 125.482H115.76L121.61 75.0591H36.5654L30.7148 125.482Z" fill="#346056"/>
<path d="M95.4153 69.8374H122.217L121.611 75.0593H93.2695L95.4153 69.8374Z" fill="#346056"/>
</svg>
