<svg width="151" height="151" viewBox="0 0 151 151" fill="none" xmlns="http://www.w3.org/2000/svg">
<path d="M131.483 23.0703H17.3086V128.507H131.483V23.0703Z" fill="#D2F1D3"/>
<path d="M131.483 23.0703H17.3086V30.6861H131.483V23.0703Z" fill="#1F3838"/>
<path d="M128.395 25.2832H121.895V26.4727H128.395V25.2832Z" fill="#FCFCFC"/>
<path d="M128.395 27.2832H121.895V28.4727H128.395V27.2832Z" fill="#FCFCFC"/>
<path d="M117.195 26.8778C117.195 27.4301 116.748 27.8777 116.195 27.8777C115.643 27.8777 115.195 27.4301 115.195 26.8778C115.195 26.3255 115.643 25.8779 116.195 25.8779C116.747 25.8776 117.195 26.3255 117.195 26.8778Z" fill="#FCFCFC"/>
<path d="M113.178 26.8778C113.178 27.4301 112.73 27.8777 112.178 27.8777C111.625 27.8777 111.178 27.4301 111.178 26.8778C111.178 26.3255 111.625 25.8779 112.178 25.8779C112.73 25.8776 113.178 26.3255 113.178 26.8778Z" fill="#FCFCFC"/>
<path d="M22.0955 26.8783C22.0955 27.4306 21.6479 27.8782 21.0956 27.8782C20.5433 27.8782 20.0957 27.4306 20.0957 26.8783C20.0957 26.326 20.5433 25.8784 21.0956 25.8784C21.6476 25.8781 22.0955 26.326 22.0955 26.8783Z" fill="#54CD85"/>
<path d="M26.7947 26.8783C26.7947 27.4306 26.3471 27.8782 25.7948 27.8782C25.2425 27.8782 24.7949 27.4306 24.7949 26.8783C24.7949 26.326 25.2425 25.8784 25.7948 25.8784C26.3471 25.8784 26.7947 26.326 26.7947 26.8783Z" fill="#A8E5B5"/>
<path d="M31.4959 26.8783C31.4959 27.4306 31.0483 27.8782 30.496 27.8782C29.9437 27.8782 29.4961 27.4306 29.4961 26.8783C29.4961 26.326 29.9437 25.8784 30.496 25.8784C31.0483 25.8781 31.4959 26.326 31.4959 26.8783Z" fill="#DEF8DF"/>
<path d="M131.483 23.0703H17.3086V128.507H131.483V23.0703Z" fill="#D2F1D3"/>
<path d="M131.483 23.0703H17.3086V30.6861H131.483V23.0703Z" fill="#1F3838"/>
<path d="M128.395 25.2832H121.895V26.4727H128.395V25.2832Z" fill="#FCFCFC"/>
<path d="M128.395 27.2832H121.895V28.4727H128.395V27.2832Z" fill="#FCFCFC"/>
<path d="M117.195 26.8778C117.195 27.4301 116.748 27.8777 116.195 27.8777C115.643 27.8777 115.195 27.4301 115.195 26.8778C115.195 26.3255 115.643 25.8779 116.195 25.8779C116.747 25.8776 117.195 26.3255 117.195 26.8778Z" fill="#FCFCFC"/>
<path d="M113.178 26.8778C113.178 27.4301 112.73 27.8777 112.178 27.8777C111.625 27.8777 111.178 27.4301 111.178 26.8778C111.178 26.3255 111.625 25.8779 112.178 25.8779C112.73 25.8776 113.178 26.3255 113.178 26.8778Z" fill="#FCFCFC"/>
<path d="M22.0955 26.8783C22.0955 27.4306 21.6479 27.8782 21.0956 27.8782C20.5433 27.8782 20.0957 27.4306 20.0957 26.8783C20.0957 26.326 20.5433 25.8784 21.0956 25.8784C21.6476 25.8781 22.0955 26.326 22.0955 26.8783Z" fill="#54CD85"/>
<path d="M26.7947 26.8783C26.7947 27.4306 26.3471 27.8782 25.7948 27.8782C25.2425 27.8782 24.7949 27.4306 24.7949 26.8783C24.7949 26.326 25.2425 25.8784 25.7948 25.8784C26.3471 25.8784 26.7947 26.326 26.7947 26.8783Z" fill="#A8E5B5"/>
<path d="M31.4959 26.8783C31.4959 27.4306 31.0483 27.8782 30.496 27.8782C29.9437 27.8782 29.4961 27.4306 29.4961 26.8783C29.4961 26.326 29.9437 25.8784 30.496 25.8784C31.0483 25.8781 31.4959 26.326 31.4959 26.8783Z" fill="#DEF8DF"/>
<path d="M131.483 23.0698H17.3086V128.507H131.483V23.0698Z" fill="#D2F1D3"/>
<path d="M131.483 23.0698H17.3086V128.507H131.483V23.0698Z" fill="#D2F1D3"/>
<path d="M131.483 23.0698H17.3086V32.2516H131.483V23.0698Z" fill="#1F3838"/>
<path d="M131.483 23.0698H17.3086V30.6856H131.483V23.0698Z" fill="#1F3838"/>
<path d="M128.395 25.2822H121.895V26.4717H128.395V25.2822Z" fill="#FCFCFC"/>
<path d="M128.395 27.2827H121.895V28.4722H128.395V27.2827Z" fill="#FCFCFC"/>
<path d="M22.0955 26.8778C22.0955 27.4301 21.6479 27.8777 21.0956 27.8777C20.5433 27.8777 20.0957 27.4301 20.0957 26.8778C20.0957 26.3255 20.5433 25.8779 21.0956 25.8779C21.6476 25.8776 22.0955 26.3255 22.0955 26.8778Z" fill="#54CD85"/>
<path d="M26.7947 26.8778C26.7947 27.4301 26.3471 27.8777 25.7948 27.8777C25.2425 27.8777 24.7949 27.4301 24.7949 26.8778C24.7949 26.3255 25.2425 25.8779 25.7948 25.8779C26.3471 25.8779 26.7947 26.3255 26.7947 26.8778Z" fill="#A8E5B5"/>
<path d="M31.4959 26.8778C31.4959 27.4301 31.0483 27.8777 30.496 27.8777C29.9437 27.8777 29.4961 27.4301 29.4961 26.8778C29.4961 26.3255 29.9437 25.8779 30.496 25.8779C31.0483 25.8776 31.4959 26.3255 31.4959 26.8778Z" fill="#DEF8DF"/>
<path d="M61.4879 46.0884H26.3828V78.4884H61.4879V46.0884Z" fill="#54CD85"/>
<path d="M61.4879 44.5083H26.3828V76.9083H61.4879V44.5083Z" fill="#54CD85"/>
<path d="M122.46 81.4077H76.834V113.808H122.46V81.4077Z" fill="#54CD85"/>
<path d="M122.782 44.5083H65.9316V48.1083H122.782V44.5083Z" fill="#1F3838"/>
<path d="M122.782 53.8584H65.9316V57.4584H122.782V53.8584Z" fill="#1F3838"/>
<path d="M122.782 63.208H65.9316V66.808H122.782V63.208Z" fill="#1F3838"/>
<path d="M122.782 72.5576H65.9316V76.1576H122.782V72.5576Z" fill="#1F3838"/>
<path d="M73.5892 81.9082H26.0098V85.5082H73.5892V81.9082Z" fill="#1F3838"/>
<path d="M73.5892 91.2578H26.0098V94.8578H73.5892V91.2578Z" fill="#1F3838"/>
<path d="M73.5892 100.608H26.0098V104.208H73.5892V100.608Z" fill="#1F3838"/>
<path d="M73.5892 109.958H26.0098V113.558H73.5892V109.958Z" fill="#1F3838"/>
<path d="M122.46 79.1578C131.777 79.1578 139.33 71.6049 139.33 62.2879C139.33 52.9709 131.777 45.418 122.46 45.418C113.143 45.418 105.59 52.9709 105.59 62.2879C105.59 71.6049 113.143 79.1578 122.46 79.1578Z" fill="#54CD85"/>
<path opacity="0.23" d="M122.46 45.418C121.277 45.418 120.124 45.5407 119.01 45.7723C126.672 47.3647 132.43 54.1534 132.43 62.2879C132.43 70.4224 126.672 77.2111 119.01 78.8035C120.124 79.0351 121.277 79.1578 122.46 79.1578C131.777 79.1578 139.33 71.605 139.33 62.2879C139.33 52.9708 131.777 45.418 122.46 45.418Z" fill="#244D4D"/>
<path d="M135.26 59.1885H109.66V65.3886H135.26V59.1885Z" fill="#FCFCFC"/>
</svg>
