<svg width="684" height="932" viewBox="0 0 684 932" fill="none" xmlns="http://www.w3.org/2000/svg">
<g clip-path="url(#clip0_13611_14959)">
<path d="M683.168 490.731C685.768 416.305 678.112 288.358 617.031 174.803C589.317 123.28 546.477 77.8949 496.757 46.3453C458.644 22.1613 416.488 6.10674 374.002 1.64882C373.954 1.64371 373.911 1.68002 373.907 1.72887C373.904 1.77787 373.86 1.81419 373.811 1.80888C320.296 -4.02011 266.215 8.51481 218.992 46.3453C78.4741 158.917 131.236 367.153 249.84 460.51C249.895 460.552 249.96 460.578 250.029 460.582C250.096 460.587 250.154 460.607 250.207 460.647C260.736 468.614 298.856 497.89 337.482 532.911C337.634 533.049 337.88 532.952 337.894 532.746C337.909 532.541 338.153 532.442 338.305 532.58C362.054 554.096 386.021 577.8 403.908 600.072C427.265 629.155 445.154 683.406 440.981 731.247C436.233 785.69 402.911 831.831 316.559 823.122C316.512 823.117 316.468 823.151 316.465 823.198C316.461 823.245 316.42 823.279 316.374 823.275C309.352 822.596 301.977 821.552 294.235 820.118C108.773 785.766 70.7026 565.394 60.7235 481.195C52.2258 409.496 57.8396 363.452 60.811 339.079C67.6164 283.26 94.4144 212.709 116.272 161.827C126.015 139.145 114.036 131.31 100.185 151.744C39.7179 240.945 3.64126 360.955 0.836064 441.267C-1.76376 515.694 5.89191 643.641 66.9727 757.196C94.6867 808.719 137.527 854.104 187.247 885.653C225.36 909.837 267.516 925.892 310.001 930.35C310.05 930.355 310.093 930.319 310.097 930.27C310.1 930.221 310.144 930.185 310.193 930.19C363.708 936.019 417.789 923.484 465.012 885.653C605.53 773.081 552.767 564.846 434.164 471.489C434.109 471.446 434.044 471.421 433.975 471.416C433.908 471.411 433.85 471.392 433.797 471.352C423.268 463.385 385.148 434.109 346.522 399.088C346.37 398.95 346.124 399.047 346.11 399.252C346.095 399.458 345.851 399.556 345.699 399.418C321.95 377.902 297.983 354.199 280.096 331.926C255.141 300.854 236.428 241.05 244.194 191.032C251.97 140.958 286.285 100.692 367.445 108.877C367.492 108.882 367.536 108.847 367.539 108.801C367.543 108.754 367.584 108.719 367.63 108.724C374.652 109.403 382.027 110.447 389.769 111.88C575.231 146.232 613.301 366.605 623.28 450.803C631.778 522.502 626.164 568.547 623.193 592.92L623.192 592.924L623.189 592.953C619.566 644.762 591.331 717.764 568.227 770.412C558.307 793.018 569.967 800.689 583.819 780.255C644.286 691.054 680.363 571.044 683.168 490.731Z" fill="#54CD85"/>
<path d="M683.168 490.732C685.768 416.305 678.112 288.358 617.031 174.803C589.317 123.28 546.477 77.895 496.757 46.3454C406.46 -10.9511 264.248 61.8848 244.194 191.032C251.97 140.959 286.285 100.692 367.445 108.877C367.492 108.882 367.536 108.847 367.539 108.801C367.543 108.754 367.584 108.719 367.63 108.724C374.652 109.403 382.027 110.447 389.769 111.881C575.231 146.232 613.301 366.605 623.28 450.803C631.778 522.503 626.164 568.547 623.193 592.92L623.192 592.924L623.189 592.953C619.566 644.762 591.331 717.764 568.227 770.412C558.307 793.018 569.967 800.689 583.819 780.255C644.286 691.054 680.363 571.044 683.168 490.732Z" fill="#038E7A"/>
<path d="M316.374 823.275C309.352 822.596 301.977 821.552 294.235 820.118C108.773 785.767 70.7026 565.394 60.7235 481.195C52.2258 409.497 57.8396 363.452 60.811 339.079C67.6164 283.26 94.4144 212.709 116.272 161.827C126.015 139.145 114.036 131.31 100.185 151.744C39.7179 240.945 3.64126 360.955 0.836064 441.267C-1.76376 515.694 5.89191 643.641 66.9727 757.196C94.6867 808.719 137.527 854.104 187.247 885.653C264.802 934.865 429.098 867.495 440.981 731.247C436.233 785.69 402.911 831.831 316.559 823.122C316.512 823.117 316.468 823.152 316.465 823.198C316.461 823.245 316.42 823.279 316.374 823.275Z" fill="#038E7A"/>
</g>
<defs>
<clipPath id="clip0_13611_14959">
<rect width="684" height="932" fill="white"/>
</clipPath>
</defs>
</svg>
