<svg width="19" height="26" viewBox="0 0 19 26" fill="none" xmlns="http://www.w3.org/2000/svg">
<path d="M18.6283 13.6773C18.699 11.639 18.4907 8.13496 16.8282 5.02504C16.0738 3.61399 14.9078 2.37104 13.5545 1.50699C12.5172 0.844665 11.3698 0.404982 10.2134 0.282894C10.2121 0.282754 10.2109 0.283748 10.2108 0.285086C10.2107 0.286428 10.2096 0.287423 10.2082 0.287277C8.75165 0.127639 7.27967 0.470931 5.99438 1.50699C2.16977 4.58998 3.60585 10.2929 6.83399 12.8497C6.83547 12.8508 6.83726 12.8515 6.83913 12.8516C6.84095 12.8518 6.84253 12.8523 6.84398 12.8534C7.13056 13.0716 8.1681 13.8734 9.21941 14.8325C9.22356 14.8363 9.23025 14.8336 9.23064 14.828C9.23103 14.8224 9.23767 14.8197 9.24182 14.8234C9.88822 15.4127 10.5405 16.0619 11.0274 16.6718C11.6631 17.4683 12.15 18.9541 12.0365 20.2643C11.9072 21.7553 11.0003 23.019 8.64994 22.7805C8.64867 22.7803 8.64746 22.7813 8.64737 22.7826C8.64728 22.7838 8.64617 22.7848 8.6449 22.7847C8.45378 22.7661 8.25304 22.7375 8.04233 22.6982C2.99443 21.7574 1.95824 15.7221 1.68663 13.4162C1.45534 11.4526 1.60814 10.1915 1.68901 9.52405C1.87424 7.99535 2.60363 6.06317 3.19854 4.66966C3.46373 4.04847 3.1377 3.83392 2.76069 4.39354C1.1149 6.83647 0.132972 10.1232 0.0566205 12.3227C-0.0141412 14.361 0.19423 17.865 1.85672 20.975C2.61104 22.386 3.77705 23.629 5.13034 24.493C6.1677 25.1553 7.31509 25.595 8.47146 25.7171C8.47278 25.7172 8.47395 25.7162 8.47405 25.7149C8.47414 25.7136 8.47533 25.7126 8.47666 25.7127C9.93324 25.8724 11.4052 25.5291 12.6905 24.493C16.5151 21.41 15.079 15.7071 11.8509 13.1503C11.8494 13.1492 11.8476 13.1485 11.8458 13.1483C11.8439 13.1482 11.8424 13.1477 11.8409 13.1466C11.5543 12.9284 10.5168 12.1266 9.46548 11.1675C9.46132 11.1637 9.45463 11.1664 9.45424 11.172C9.45385 11.1776 9.44721 11.1803 9.44306 11.1766C8.79666 10.5873 8.14434 9.93813 7.65749 9.32816C6.97827 8.47718 6.46893 6.83935 6.68032 5.46951C6.89195 4.09815 7.82593 2.99536 10.0349 3.21953C10.0362 3.21966 10.0374 3.21872 10.0375 3.21744C10.0376 3.21617 10.0387 3.21522 10.04 3.21534C10.2311 3.23394 10.4318 3.26252 10.6426 3.30179C15.6905 4.24258 16.7266 10.2779 16.9983 12.5838C17.2295 14.5474 17.0767 15.8085 16.9959 16.4759L16.9959 16.4761L16.9958 16.4769C16.8972 17.8957 16.1286 19.895 15.4998 21.3369C15.2298 21.956 15.5472 22.1661 15.9242 21.6065C17.57 19.1635 18.5519 15.8768 18.6283 13.6773Z" fill="#54CD85"/>
<path d="M18.6283 13.6774C18.699 11.6391 18.4907 8.13499 16.8282 5.02508C16.0738 3.61403 14.9078 2.37107 13.5545 1.50702C11.0969 -0.0621459 7.22615 1.9326 6.68032 5.46955C6.89195 4.09818 7.82593 2.9954 10.0349 3.21957C10.0362 3.2197 10.0374 3.21876 10.0375 3.21748C10.0376 3.2162 10.0387 3.21525 10.04 3.21538C10.2311 3.23397 10.4318 3.26256 10.6426 3.30183C15.6905 4.24261 16.7266 10.2779 16.9983 12.5839C17.2295 14.5475 17.0767 15.8085 16.9959 16.476L16.9959 16.4761L16.9958 16.4769C16.8972 17.8958 16.1286 19.8951 15.4998 21.337C15.2298 21.956 15.5472 22.1661 15.9242 21.6065C17.57 19.1636 18.5519 15.8769 18.6283 13.6774Z" fill="#038E7A"/>
<path d="M8.6449 22.7847C8.45378 22.7661 8.25304 22.7375 8.04233 22.6982C2.99443 21.7574 1.95824 15.7221 1.68663 13.4162C1.45534 11.4526 1.60814 10.1916 1.68901 9.52409C1.87424 7.99538 2.60363 6.0632 3.19854 4.66969C3.46373 4.0485 3.1377 3.83395 2.76069 4.39357C1.1149 6.83651 0.132972 10.1232 0.0566205 12.3227C-0.0141412 14.361 0.19423 17.8651 1.85672 20.975C2.61104 22.386 3.77705 23.629 5.13034 24.493C7.24123 25.8408 11.713 23.9957 12.0365 20.2643C11.9072 21.7554 11.0003 23.019 8.64994 22.7805C8.64867 22.7804 8.64746 22.7813 8.64737 22.7826C8.64728 22.7839 8.64617 22.7848 8.6449 22.7847Z" fill="#038E7A"/>
</svg>
