<svg width="512" height="698" viewBox="0 0 512 698" fill="none" xmlns="http://www.w3.org/2000/svg">
<path d="M511.307 367.353C513.253 311.658 507.524 215.911 461.815 130.934C441.076 92.3778 409.017 58.4147 371.81 34.8051C343.289 16.7074 311.742 4.6933 279.949 1.3573C279.912 1.35347 279.88 1.38064 279.878 1.41719C279.875 1.45387 279.842 1.48105 279.806 1.47707C239.759 -2.88495 199.288 6.49533 163.95 34.8051C58.7957 119.046 98.2794 274.876 187.034 344.738C187.075 344.77 187.124 344.788 187.176 344.792C187.226 344.795 187.269 344.81 187.309 344.84C195.188 350.802 223.714 372.71 252.619 398.918C252.733 399.021 252.917 398.948 252.928 398.794C252.939 398.641 253.121 398.567 253.235 398.67C271.008 414.771 288.943 432.51 302.328 449.177C319.807 470.94 333.194 511.538 330.071 547.339C326.518 588.081 301.582 622.609 236.962 616.092C236.927 616.088 236.894 616.114 236.891 616.149C236.889 616.184 236.858 616.21 236.824 616.206C231.569 615.698 226.05 614.917 220.256 613.844C81.469 588.137 52.98 423.226 45.5123 360.217C39.1532 306.563 43.3542 272.106 45.5778 253.867C50.6705 212.096 70.7243 159.3 87.0809 121.223C94.3722 104.25 85.408 98.3872 75.0425 113.678C29.7931 180.43 2.79586 270.238 0.696643 330.338C-1.24889 386.033 4.4801 481.78 50.1888 566.757C70.928 605.313 102.986 639.276 140.194 662.886C168.715 680.984 200.262 692.998 232.055 696.334C232.091 696.338 232.124 696.311 232.126 696.274C232.129 696.237 232.161 696.21 232.198 696.214C272.245 700.576 312.716 691.196 348.054 662.886C453.208 578.645 413.724 422.815 324.97 352.954C324.929 352.922 324.88 352.903 324.828 352.899C324.778 352.896 324.735 352.881 324.695 352.851C316.816 346.889 288.289 324.981 259.385 298.774C259.271 298.67 259.087 298.743 259.076 298.897C259.065 299.05 258.883 299.124 258.768 299.021C240.996 282.92 223.061 265.182 209.676 248.514C191.001 225.262 176.997 180.509 182.809 143.079C188.628 105.607 214.307 75.4741 275.042 81.5995C275.077 81.603 275.11 81.5773 275.112 81.5424C275.115 81.5076 275.145 81.4816 275.18 81.485C280.435 81.993 285.954 82.7741 291.747 83.8472C430.535 109.554 459.024 274.465 466.492 337.474C472.851 391.129 468.65 425.586 466.426 443.824L466.426 443.828L466.423 443.849C463.712 482.619 442.583 537.249 425.293 576.648C417.87 593.564 426.595 599.305 436.961 584.013C482.211 517.261 509.208 427.454 511.307 367.353Z" fill="#5A5A5A"/>
<path d="M511.307 367.353C513.253 311.658 507.524 215.911 461.815 130.934C441.076 92.3777 409.017 58.4146 371.81 34.805C304.238 -8.07177 197.816 46.4337 182.809 143.079C188.628 105.607 214.307 75.4741 275.042 81.5994C275.077 81.6029 275.11 81.5772 275.112 81.5423C275.115 81.5075 275.145 81.4815 275.18 81.4849C280.435 81.993 285.954 82.774 291.747 83.8471C430.535 109.554 459.024 274.465 466.492 337.474C472.851 391.129 468.65 425.585 466.426 443.824L466.426 443.827L466.423 443.849C463.712 482.619 442.583 537.249 425.293 576.648C417.87 593.564 426.595 599.305 436.961 584.013C482.211 517.261 509.208 427.454 511.307 367.353Z" fill="#A5A5A5"/>
<path d="M236.824 616.206C231.569 615.698 226.05 614.917 220.256 613.844C81.469 588.137 52.98 423.226 45.5123 360.217C39.1532 306.563 43.3542 272.106 45.5778 253.867C50.6705 212.096 70.7243 159.3 87.0809 121.223C94.3722 104.25 85.408 98.3871 75.0425 113.678C29.7931 180.43 2.79586 270.238 0.696643 330.338C-1.24889 386.033 4.4801 481.78 50.1888 566.757C70.928 605.313 102.986 639.276 140.194 662.886C198.231 699.713 321.178 649.298 330.071 547.338C326.518 588.081 301.582 622.609 236.962 616.092C236.927 616.088 236.894 616.114 236.891 616.149C236.889 616.184 236.858 616.209 236.824 616.206Z" fill="#A5A5A5"/>
</svg>
